<svg width="7" height="26" viewBox="0 0 7 26" fill="none" xmlns="http://www.w3.org/2000/svg">
<g clip-path="url(#clip0_6141_10623)">
<path d="M6.33054 10.5045L0.330538 10.5045C0.269791 10.5047 0.210246 10.5214 0.158313 10.5529C0.106379 10.5844 0.0640244 10.6295 0.0358061 10.6833C0.00758833 10.7371 -0.00542409 10.7976 -0.0018297 10.8582C0.0017647 10.9189 0.0218295 10.9774 0.0562047 11.0275L3.0562 15.3608C3.18054 15.5405 3.47987 15.5405 3.60454 15.3608L6.60454 11.0275C6.63926 10.9775 6.65963 10.9189 6.66342 10.8582C6.66721 10.7975 6.65428 10.7368 6.62603 10.6829C6.59779 10.629 6.55531 10.5839 6.50322 10.5524C6.45112 10.5209 6.3914 10.5044 6.33054 10.5045Z" fill="#080808"/>
</g>
<defs>
<clipPath id="clip0_6141_10623">
<rect width="6.66648" height="26" fill="white"/>
</clipPath>
</defs>
</svg>
