<svg width="21" height="20" viewBox="0 0 21 20" fill="none" xmlns="http://www.w3.org/2000/svg">
<g clip-path="url(#clip0_6214_5433)">
<path fill-rule="evenodd" clip-rule="evenodd" d="M10.5 5.45459C9.29452 5.45459 8.13836 5.93348 7.28592 6.78592C6.43348 7.63836 5.95459 8.79452 5.95459 10C5.95459 11.2056 6.43348 12.3617 7.28592 13.2142C8.13836 14.0666 9.29452 14.5455 10.5 14.5455C11.7056 14.5455 12.8617 14.0666 13.7142 13.2142C14.5666 12.3617 15.0455 11.2056 15.0455 10C15.0455 8.79452 14.5666 7.63836 13.7142 6.78592C12.8617 5.93348 11.7056 5.45459 10.5 5.45459ZM7.77277 10C7.77277 10.7234 8.06011 11.4171 8.57157 11.9285C9.08303 12.44 9.77673 12.7273 10.5 12.7273C11.2234 12.7273 11.9171 12.44 12.4285 11.9285C12.94 11.4171 13.2273 10.7234 13.2273 10C13.2273 9.27673 12.94 8.58303 12.4285 8.07157C11.9171 7.56011 11.2234 7.27277 10.5 7.27277C9.77673 7.27277 9.08303 7.56011 8.57157 8.07157C8.06011 8.58303 7.77277 9.27673 7.77277 10Z" fill="#4ABD67"/>
<path d="M15.9545 3.63623C15.7134 3.63623 15.4822 3.73201 15.3117 3.9025C15.1412 4.07298 15.0454 4.30422 15.0454 4.54532C15.0454 4.78643 15.1412 5.01766 15.3117 5.18815C15.4822 5.35863 15.7134 5.45441 15.9545 5.45441C16.1956 5.45441 16.4268 5.35863 16.5973 5.18815C16.7678 5.01766 16.8636 4.78643 16.8636 4.54532C16.8636 4.30422 16.7678 4.07298 16.5973 3.9025C16.4268 3.73201 16.1956 3.63623 15.9545 3.63623Z" fill="#4ABD67"/>
<path fill-rule="evenodd" clip-rule="evenodd" d="M4.13636 0C3.17194 0 2.24702 0.383116 1.56507 1.06507C0.883116 1.74702 0.5 2.67194 0.5 3.63636V16.3636C0.5 17.3281 0.883116 18.253 1.56507 18.9349C2.24702 19.6169 3.17194 20 4.13636 20H16.8636C17.8281 20 18.753 19.6169 19.4349 18.9349C20.1169 18.253 20.5 17.3281 20.5 16.3636V3.63636C20.5 2.67194 20.1169 1.74702 19.4349 1.06507C18.753 0.383116 17.8281 0 16.8636 0H4.13636ZM16.8636 1.81818H4.13636C3.65415 1.81818 3.19169 2.00974 2.85071 2.35071C2.50974 2.69169 2.31818 3.15415 2.31818 3.63636V16.3636C2.31818 16.8458 2.50974 17.3083 2.85071 17.6493C3.19169 17.9903 3.65415 18.1818 4.13636 18.1818H16.8636C17.3458 18.1818 17.8083 17.9903 18.1493 17.6493C18.4903 17.3083 18.6818 16.8458 18.6818 16.3636V3.63636C18.6818 3.15415 18.4903 2.69169 18.1493 2.35071C17.8083 2.00974 17.3458 1.81818 16.8636 1.81818Z" fill="#4ABD67"/>
</g>
<defs>
<clipPath id="clip0_6214_5433">
<rect width="20" height="20" fill="white" transform="translate(0.5)"/>
</clipPath>
</defs>
</svg>
