<svg width="72" height="72" viewBox="0 0 72 72" fill="none" xmlns="http://www.w3.org/2000/svg">
<path d="M0 4C0 1.79086 1.79086 0 4 0H68C70.2091 0 72 1.79086 72 4V68C72 70.2091 70.2091 72 68 72H4C1.79086 72 0 70.2091 0 68V4Z" fill="#46B361"/>
<path d="M57.9428 29.1428L49.7143 18.1714H22.3104L14.0571 29.1428M57.9428 29.1428L36 56.5714M57.9428 29.1428H14.0571M36 56.5714L14.0571 29.1428M36 56.5714L27.7714 29.1428M36 56.5714L44.2286 29.1428" stroke="white" stroke-width="1.52381" stroke-linecap="round" stroke-linejoin="round"/>
<path d="M22.3105 18.1714L27.7716 29.1428L36.0001 18.1714L44.2287 29.1428L49.7144 18.1714" stroke="white" stroke-width="1.52381" stroke-linecap="round" stroke-linejoin="round"/>
</svg>
