<svg width="21" height="20" viewBox="0 0 21 20" fill="none" xmlns="http://www.w3.org/2000/svg">
<path d="M17.4731 5.30781C17.4035 5.02844 17.2055 4.8175 16.979 4.75281C16.5775 4.6375 14.626 4.375 10.501 4.375C6.37596 4.375 4.42529 4.6375 4.02104 4.75281C3.79737 4.81656 3.59937 5.0275 3.52879 5.30781C3.42887 5.70531 3.16762 7.37031 3.16762 10C3.16762 12.6287 3.42887 14.2938 3.52879 14.6931C3.59846 14.9716 3.79646 15.1825 4.02196 15.2463C4.42529 15.3625 6.37504 15.625 10.5 15.625C14.625 15.625 16.5766 15.3625 16.98 15.2472C17.2036 15.1834 17.4016 14.9725 17.4722 14.6922C17.573 14.2947 17.8334 12.625 17.8334 10C17.8334 7.375 17.573 5.70625 17.4731 5.30781ZM19.2478 4.84188C19.6667 6.5125 19.6667 10 19.6667 10C19.6667 10 19.6667 13.4875 19.2478 15.1581C19.015 16.0816 18.3339 16.8081 17.4713 17.0538C15.9056 17.5 10.5 17.5 10.5 17.5C10.5 17.5 5.09812 17.5 3.52879 17.0538C2.66254 16.8044 1.98237 16.0788 1.75229 15.1581C1.33337 13.4875 1.33337 10 1.33337 10C1.33337 10 1.33337 6.5125 1.75229 4.84188C1.98512 3.91844 2.66621 3.19187 3.52879 2.94625C5.09904 2.5 10.501 2.5 10.501 2.5C10.501 2.5 15.9056 2.5 17.4722 2.94625C18.3375 3.19562 19.0186 3.92125 19.2487 4.84188M8.66762 13.2812V6.71875L14.1676 10L8.66762 13.2812Z" fill="#4ABD67"/>
</svg>
