<svg width="72" height="72" viewBox="0 0 72 72" fill="none" xmlns="http://www.w3.org/2000/svg">
<path d="M0 4C0 1.79086 1.79086 0 4 0H68C70.2091 0 72 1.79086 72 4V68C72 70.2091 70.2091 72 68 72H4C1.79086 72 0 70.2091 0 68V4Z" fill="#46B361"/>
<path d="M59.2 22.2999H52.8999V17.7999C52.8999 17.5612 52.8051 17.3323 52.6363 17.1635C52.4676 16.9947 52.2386 16.8999 52 16.8999H19.6C19.3613 16.8999 19.1323 16.9947 18.9636 17.1635C18.7948 17.3323 18.7 17.5612 18.7 17.7999V22.2999H12.4C11.6839 22.2999 10.9971 22.5844 10.4908 23.0907C9.98441 23.5971 9.69995 24.2838 9.69995 24.9999V28.5999C9.69995 30.7482 10.5533 32.8084 12.0724 34.3275C13.5914 35.8465 15.6517 36.6999 17.8 36.6999H19.2985C20.2455 40.1707 22.2631 43.2545 25.0642 45.5122C27.8653 47.77 31.3072 49.0868 34.9 49.2752V56.4999H28.6C28.3613 56.4999 28.1323 56.5947 27.9636 56.7635C27.7948 56.9323 27.7 57.1612 27.7 57.3999C27.7 57.6386 27.7948 57.8675 27.9636 58.0363C28.1323 58.2051 28.3613 58.2999 28.6 58.2999H43C43.2386 58.2999 43.4676 58.2051 43.6363 58.0363C43.8051 57.8675 43.9 57.6386 43.9 57.3999C43.9 57.1612 43.8051 56.9323 43.6363 56.7635C43.4676 56.5947 43.2386 56.4999 43 56.4999H36.7V49.2729C44.1092 48.8814 50.2922 43.6682 52.2497 36.6999H53.7999C55.9482 36.6999 58.0085 35.8465 59.5275 34.3275C61.0466 32.8084 61.8999 30.7482 61.8999 28.5999V24.9999C61.8999 24.2838 61.6155 23.5971 61.1091 23.0907C60.6028 22.5844 59.916 22.2999 59.2 22.2999ZM17.8 34.8999C16.1291 34.8999 14.5267 34.2362 13.3452 33.0547C12.1637 31.8732 11.5 30.2708 11.5 28.5999V24.9999C11.5 24.7612 11.5948 24.5323 11.7636 24.3635C11.9323 24.1947 12.1613 24.0999 12.4 24.0999H18.7V32.1999C18.7044 33.1044 18.7796 34.0072 18.925 34.8999H17.8ZM51.0999 31.9974C51.0999 40.4822 44.1722 47.4369 35.7999 47.4999C31.7421 47.4999 27.8505 45.8879 24.9812 43.0186C22.1119 40.1493 20.5 36.2577 20.5 32.1999V18.6999H51.0999V31.9974ZM60.0999 28.5999C60.0999 29.4272 59.937 30.2465 59.6204 31.0108C59.3038 31.7752 58.8397 32.4697 58.2547 33.0547C57.6697 33.6397 56.9752 34.1037 56.2109 34.4203C55.4465 34.7369 54.6273 34.8999 53.7999 34.8999H52.6525C52.8159 33.941 52.8987 32.9701 52.8999 31.9974V24.0999H59.2C59.4386 24.0999 59.6676 24.1947 59.8363 24.3635C60.0051 24.5323 60.0999 24.7612 60.0999 24.9999V28.5999Z" fill="white"/>
</svg>
