<svg width="72" height="72" viewBox="0 0 72 72" fill="none" xmlns="http://www.w3.org/2000/svg">
<path d="M0 4C0 1.79086 1.79086 0 4 0H68C70.2091 0 72 1.79086 72 4V68C72 70.2091 70.2091 72 68 72H4C1.79086 72 0 70.2091 0 68V4Z" fill="#46B361"/>
<path d="M13.2 26.8488C13.4496 21.8088 14.196 18.6648 16.4328 16.4328C18.6648 14.196 21.8088 13.4496 26.8488 13.2M58.7999 26.8488C58.5503 21.8088 57.8039 18.6648 55.5671 16.4328C53.3351 14.196 50.1911 13.4496 45.1511 13.2M45.1511 58.7999C50.1911 58.5503 53.3351 57.8039 55.5671 55.5671C57.8039 53.3351 58.5503 50.1911 58.7999 45.1511M26.8488 58.7999C21.8088 58.5503 18.6648 57.8039 16.4328 55.5671C14.196 53.3351 13.4496 50.1911 13.2 45.1511M54.3239 34.3631C54.9071 35.0927 55.1999 35.4599 55.1999 35.9999C55.1999 36.5399 54.9071 36.9072 54.3239 37.6368C51.7007 40.9199 45.0023 47.9999 35.9999 47.9999C26.9976 47.9999 20.2992 40.9199 17.676 37.6368C17.0928 36.9072 16.8 36.5399 16.8 35.9999C16.8 35.4599 17.0928 35.0927 17.676 34.3631C20.2992 31.0799 26.9976 24 35.9999 24C45.0023 24 51.7007 31.0799 54.3239 34.3631Z" stroke="white" stroke-width="2" stroke-linecap="round" stroke-linejoin="round"/>
<path d="M40.8 36C40.8 34.7269 40.2942 33.506 39.3941 32.6058C38.4939 31.7057 37.273 31.2 36 31.2C34.7269 31.2 33.506 31.7057 32.6058 32.6058C31.7057 33.506 31.2 34.7269 31.2 36C31.2 37.273 31.7057 38.4939 32.6058 39.3941C33.506 40.2942 34.7269 40.8 36 40.8C37.273 40.8 38.4939 40.2942 39.3941 39.3941C40.2942 38.4939 40.8 37.273 40.8 36Z" stroke="white" stroke-width="2" stroke-linecap="round" stroke-linejoin="round"/>
</svg>
