<svg width="32" height="32" viewBox="0 0 32 32" fill="none" xmlns="http://www.w3.org/2000/svg">
<path d="M27.6988 20.0374L21.7938 17.3912C21.5262 17.2766 21.2343 17.2305 20.9444 17.2571C20.6546 17.2837 20.3759 17.3822 20.1338 17.5437C20.1092 17.5595 20.0858 17.5771 20.0638 17.5962L16.9775 20.2212C16.9455 20.2387 16.9098 20.2484 16.8734 20.2497C16.837 20.251 16.8007 20.2438 16.7675 20.2287C14.7838 19.2712 12.7288 17.2287 11.7675 15.2724C11.7515 15.2398 11.7432 15.2038 11.7432 15.1674C11.7432 15.1311 11.7515 15.0951 11.7675 15.0624L14.4013 11.9374C14.4202 11.9143 14.4377 11.8901 14.4538 11.8649C14.613 11.6218 14.7092 11.3429 14.7336 11.0533C14.7581 10.7637 14.71 10.4726 14.5938 10.2062L11.9663 4.3112C11.8171 3.96321 11.559 3.673 11.2308 3.48413C10.9027 3.29526 10.5221 3.21791 10.1463 3.2637C8.5128 3.47845 7.01341 4.28062 5.92829 5.52033C4.84318 6.76003 4.24659 8.35243 4.25001 9.99995C4.25001 19.7874 12.2125 27.7499 22 27.7499C23.6475 27.7531 25.2397 27.1564 26.4794 26.0714C27.719 24.9863 28.5213 23.4871 28.7363 21.8537C28.782 21.4796 28.7057 21.1008 28.5187 20.7735C28.3318 20.4463 28.0442 20.1881 27.6988 20.0374ZM22 26.2499C13.04 26.2499 5.75001 18.9599 5.75001 9.99995C5.74584 8.71736 6.20877 7.47712 7.05232 6.51096C7.89587 5.5448 9.06233 4.91881 10.3338 4.74995H10.3625C10.4129 4.75089 10.4618 4.76703 10.5028 4.79625C10.5439 4.82547 10.5751 4.86641 10.5925 4.9137L13.23 10.8024C13.2451 10.8352 13.2528 10.8708 13.2528 10.9068C13.2528 10.9429 13.2451 10.9785 13.23 11.0112L10.5913 14.1437C10.5717 14.1661 10.5537 14.1899 10.5375 14.2149C10.3724 14.467 10.2752 14.7575 10.2552 15.0581C10.2353 15.3588 10.2934 15.6595 10.4238 15.9312C11.5325 18.2012 13.82 20.4712 16.115 21.5799C16.3883 21.7096 16.6905 21.7663 16.9921 21.7444C17.2938 21.7225 17.5846 21.6228 17.8363 21.4549C17.86 21.4387 17.8838 21.4212 17.9063 21.4024L20.9913 18.7774C21.0217 18.7611 21.0554 18.7515 21.0899 18.7493C21.1244 18.7472 21.159 18.7525 21.1913 18.7649L27.0975 21.4112C27.1458 21.4317 27.1863 21.4669 27.2135 21.5118C27.2406 21.5567 27.253 21.6089 27.2488 21.6612C27.0808 22.9332 26.4554 24.1005 25.4894 24.945C24.5235 25.7895 23.2831 26.2534 22 26.2499Z" fill="#4ABD67"/>
</svg>
