<svg width="32" height="32" viewBox="0 0 32 32" fill="none" xmlns="http://www.w3.org/2000/svg">
<path d="M16 29.244C15.6418 29.2452 15.2883 29.1625 14.9679 29.0025C14.6474 28.8425 14.3689 28.6097 14.1546 28.3227L7.40663 19.3333C6.29011 17.7588 5.62806 15.9076 5.49289 13.9821C5.35771 12.0567 5.75461 10.1311 6.64018 8.41605C7.52575 6.70099 8.86588 5.26246 10.514 4.2578C12.1622 3.25315 14.0548 2.72105 15.985 2.7197C17.9152 2.71835 19.8086 3.24781 21.4582 4.25016C23.1077 5.25251 24.4499 6.68916 25.3378 8.40299C26.2258 10.1168 26.6254 12.0418 26.4929 13.9675C26.3604 15.8931 25.7009 17.7453 24.5866 19.3213L17.8466 28.32C17.6325 28.6077 17.3539 28.8411 17.0332 29.0016C16.7125 29.1621 16.3586 29.2451 16 29.244ZM15.9893 4.08801C13.7355 4.07965 11.5594 4.91102 9.88529 6.42001C8.20557 7.91944 7.13501 9.98354 6.87692 12.2203C6.61883 14.4571 7.19118 16.7108 8.48529 18.5533L15.22 27.5227C15.3106 27.6436 15.4282 27.7417 15.5633 27.8092C15.6985 27.8768 15.8475 27.912 15.9986 27.912C16.1502 27.9124 16.2997 27.8774 16.4354 27.8098C16.571 27.7423 16.689 27.6439 16.78 27.5227L23.5053 18.544C24.4229 17.2455 24.9869 15.7307 25.142 14.1482C25.297 12.5658 25.0377 10.9703 24.3896 9.51842C23.7414 8.06653 22.7268 6.80822 21.4452 5.86712C20.1636 4.92602 18.6593 4.3345 17.08 4.15067C16.7179 4.10851 16.3538 4.08758 15.9893 4.08801Z" fill="#4ABD67"/>
<path d="M16.0001 16.6667C15.3408 16.6667 14.6963 16.4712 14.1482 16.1049C13.6 15.7386 13.1728 15.218 12.9205 14.6089C12.6682 13.9999 12.6022 13.3296 12.7308 12.683C12.8594 12.0364 13.1769 11.4425 13.6431 10.9763C14.1092 10.5101 14.7032 10.1927 15.3498 10.0641C15.9964 9.93543 16.6666 10.0014 17.2757 10.2537C17.8848 10.506 18.4054 10.9333 18.7716 11.4814C19.1379 12.0296 19.3334 12.6741 19.3334 13.3333C19.3334 14.2174 18.9822 15.0652 18.3571 15.6904C17.732 16.3155 16.8841 16.6667 16.0001 16.6667ZM16.0001 11.3333C15.6045 11.3333 15.2178 11.4506 14.8889 11.6704C14.56 11.8902 14.3037 12.2025 14.1523 12.568C14.0009 12.9334 13.9613 13.3356 14.0385 13.7235C14.1157 14.1115 14.3062 14.4678 14.5859 14.7475C14.8656 15.0273 15.2219 15.2177 15.6099 15.2949C15.9979 15.3721 16.4 15.3325 16.7655 15.1811C17.1309 15.0297 17.4433 14.7734 17.663 14.4445C17.8828 14.1156 18.0001 13.7289 18.0001 13.3333C18.0001 12.8029 17.7894 12.2942 17.4143 11.9191C17.0392 11.544 16.5305 11.3333 16.0001 11.3333Z" fill="#4ABD67"/>
</svg>
