<svg width="40" height="40" viewBox="0 0 40 40" fill="none" xmlns="http://www.w3.org/2000/svg">
<g clip-path="url(#clip0_4622_22121)">
<path d="M20 0C25.3043 0 30.3914 2.10714 34.1421 5.85786C37.8929 9.60859 40 14.6957 40 20C40 25.3043 37.8929 30.3914 34.1421 34.1421C30.3914 37.8929 25.3043 40 20 40C14.6957 40 9.60859 37.8929 5.85786 34.1421C2.10714 30.3914 0 25.3043 0 20C0 14.6957 2.10714 9.60859 5.85786 5.85786C9.60859 2.10714 14.6957 0 20 0ZM3.75 20C3.75 24.3098 5.46205 28.443 8.50951 31.4905C11.557 34.538 15.6902 36.25 20 36.25C24.3098 36.25 28.443 34.538 31.4905 31.4905C34.538 28.443 36.25 24.3098 36.25 20C36.25 15.6902 34.538 11.557 31.4905 8.50951C28.443 5.46205 24.3098 3.75 20 3.75C15.6902 3.75 11.557 5.46205 8.50951 8.50951C5.46205 11.557 3.75 15.6902 3.75 20ZM15.9475 13.0675L26.6075 19.465C26.6996 19.5206 26.7758 19.5991 26.8287 19.6929C26.8816 19.7866 26.9094 19.8924 26.9094 20C26.9094 20.1076 26.8816 20.2134 26.8287 20.3071C26.7758 20.4009 26.6996 20.4794 26.6075 20.535L15.9475 26.9325C15.8527 26.9896 15.7445 27.0205 15.6338 27.0221C15.5231 27.0236 15.4141 26.9958 15.3177 26.9414C15.2213 26.887 15.1411 26.8079 15.0853 26.7124C15.0295 26.6168 15.0001 26.5082 15 26.3975V13.605C14.9996 13.4941 15.0287 13.3851 15.0844 13.2892C15.14 13.1933 15.2202 13.114 15.3166 13.0592C15.413 13.0045 15.5223 12.9765 15.6332 12.9779C15.744 12.9794 15.8525 13.0103 15.9475 13.0675Z" fill="white"/>
</g>
<defs>
<clipPath id="clip0_4622_22121">
<rect width="40" height="40" fill="white"/>
</clipPath>
</defs>
</svg>
